<svg id="Layer_1" data-name="Layer 1" xmlns="http://www.w3.org/2000/svg" viewBox="0 0 2132.12 854.96"><defs><style>.cls-1{fill:#f26d21;}.cls-2{fill:#1d4381;}.cls-3{fill:none;stroke:#1d4381;stroke-miterlimit:10;}</style></defs><polygon class="cls-1" points="263.81 508.15 263.81 596.29 253.31 597.01 252.06 510.75 263.81 508.15"/><polygon class="cls-1" points="83.55 822.48 26.36 825.54 35.04 815.84 94.55 812.71 83.55 822.48"/><polygon class="cls-1" points="544.13 745.35 577.78 805.12 565.9 801.91 532.45 746.72 544.13 745.35"/><path class="cls-2" d="M6744.51,6815.16l48.68,107.41-97.87-50.39,85.62,205.11L6703,7173l-7.15,78.47-238.12,145.36-19.58,105,163.41-3.91,54.12,90.72-27.74-7.83-37.45-62.47-176.34,3.75,20.6-111.66L6287,7462.82l-169.36,158-79.15,5.62L6057,7605l52.09-3.23,167.15-156.26L6401,7400.69l-77.1-21.27,17.05-16.81,91.2,26.51,244.43-149.45,4.59-51.57-67.06-15.49-225,51.57L6328.68,7270l-.41,78.86L6308.35,7369l.08-87.91-62.64,5.18-.17,89.7-115.06,69.45-48.51-92.94,34.21-95.15,66.72-41.19,62.64,50.22,63.15-5.45,52.08-40-183.66-32.51v-76.26l120.17-87.32,329.71,42.9-5.11,86.3,59.92,13.78,77.44-95.66-100.59-24.68-38.64-146.84,25.19-108.82,36.94-19.23Zm6.81,63.49-22.64-49.87-48-33-14,7.32,16.68,40.68Zm-3.91,169.87-91.09-217-15.64,69.16,34.56,130.67Zm-145.87,106.39,4.59-70-303.49-39.15-105.53,76.6v49.7L6384.68,7205ZM6226,7365V7276.1l-43.79-35.24-49.53,29.88-29,80.29,34.73,66.26Z" transform="translate(-6037.31 -6772.03)"/><polygon class="cls-3" points="755.89 150.54 707.21 43.13 644.92 0.58 607.98 19.81 582.79 128.63 621.43 275.47 722.02 300.15 644.58 395.81 584.66 382.03 589.77 295.73 260.06 252.83 139.89 340.15 139.89 416.41 323.55 448.92 271.47 488.92 208.32 494.37 145.68 444.15 78.96 485.34 44.75 580.49 93.26 673.43 208.32 603.98 208.49 514.28 271.13 509.1 271.05 597.01 290.97 576.83 291.38 497.97 351.81 452.15 576.83 400.58 643.89 416.07 639.3 467.64 394.87 617.09 303.67 590.58 286.62 607.39 363.72 628.66 238.96 673.43 71.81 829.69 19.72 832.92 1.17 854.37 80.32 848.75 249.68 690.79 397.43 638.37 376.83 750.03 553.17 746.28 590.62 808.75 618.36 816.58 564.24 725.86 400.83 729.77 420.41 624.75 658.53 479.39 665.68 400.92 743.64 305.26 658.02 100.15 755.89 150.54"/><polygon class="cls-3" points="629.43 31.05 643.38 23.73 691.38 56.75 714.02 106.62 646.11 71.73 629.43 31.05"/><polygon class="cls-3" points="619.02 59.47 603.38 128.63 637.94 259.3 710.11 276.49 619.02 59.47"/><polygon class="cls-3" points="564.24 382.88 568.83 312.92 265.34 273.77 159.81 350.37 159.81 400.07 347.38 432.92 564.24 382.88"/><polygon class="cls-3" points="101.09 645.26 188.66 592.92 188.66 504.07 144.87 468.83 95.34 498.71 66.36 579 101.09 645.26"/><polygon class="cls-1" points="101.34 503.52 95.6 520.18 152.53 483.41 144.42 476.07 101.34 503.52"/><polygon class="cls-1" points="181.36 590.91 181.36 506.13 170.64 498.21 170.64 598.09 181.36 590.91"/><polygon class="cls-1" points="72.81 579.37 76.89 568.11 111.4 631.14 103.74 636.53 72.81 579.37"/><polygon class="cls-1" points="166.26 394.75 166.26 353.46 175.72 346.82 175.72 396.02 166.26 394.75"/><polygon class="cls-1" points="348.4 426.35 557.85 377.58 558.45 365.7 321.86 421.69 348.4 426.35"/><polygon class="cls-1" points="561.09 319.03 266.92 281.48 255.04 289.88 560.29 330.83 561.09 319.03"/><circle class="cls-1" cx="657.11" cy="51.13" r="7.47"/><polygon class="cls-1" points="610.5 130.06 620.75 82.07 627.05 96.28 616.16 147.1 610.5 130.06"/><polygon class="cls-1" points="643.35 253.57 697.25 265.71 693.28 254.76 640.15 241.62 643.35 253.57"/><path class="cls-2" d="M6969.94,7146.44c-50.16,0-80.89-34.56-80.89-87.12,0-53.28,31.45-87.6,80.89-87.6,34.8,0,64.08,15.12,72.72,59.52a1.85,1.85,0,0,1-1.68,1.92h-25a2.53,2.53,0,0,1-2.4-1.92c-4.8-23.76-20.88-35.76-44.16-35.76-32.16,0-49.92,24.48-49.92,63.84,0,40.8,18.48,63.36,49.68,63.36,25.68,0,41.28-13.92,45.12-39.6a2.28,2.28,0,0,1,2.16-1.92h25.68a1.85,1.85,0,0,1,1.68,1.92C7036.18,7127.72,7009.06,7146.44,6969.94,7146.44Z" transform="translate(-6037.31 -6772.03)"/><path class="cls-2" d="M7113,7038.92c-14.17,0-27.61,11.28-31.69,32.4l.73,69.84a2.07,2.07,0,0,1-1.93,1.92h-25a2.06,2.06,0,0,1-1.92-1.92l1-82.8-1-81.36a2.06,2.06,0,0,1,1.92-1.92h25A2.07,2.07,0,0,1,7082,6977l-.49,59c8.16-11.76,21.12-19.44,38.89-19.44,26.88,0,43.44,16.32,43,52.32v25.68l.48,46.56a2.06,2.06,0,0,1-1.92,1.92h-25.68a2.06,2.06,0,0,1-1.92-1.92l.72-46.08-.24-29.28C7134.82,7047.08,7125.22,7038.92,7113,7038.92Z" transform="translate(-6037.31 -6772.03)"/><path class="cls-1" d="M7179,7143.08a2.06,2.06,0,0,1-1.92-1.92l1-83.28-1-80.88a2.06,2.06,0,0,1,1.92-1.92h107.76a2.06,2.06,0,0,1,1.92,1.92v19.2a2.06,2.06,0,0,1-1.92,1.92h-79.92l-.72,44.4h74.16a2.06,2.06,0,0,1,1.92,1.92v19.2a2.06,2.06,0,0,1-1.92,1.92h-74.16l.72,54.48h81.84a2.06,2.06,0,0,1,1.92,1.92v19.2a2.06,2.06,0,0,1-1.92,1.92Z" transform="translate(-6037.31 -6772.03)"/><path class="cls-2" d="M7328.25,7070.12l.24,71a2.06,2.06,0,0,1-1.92,1.92h-23a2.06,2.06,0,0,1-1.92-1.92l.72-81.36-.72-82.8a2.06,2.06,0,0,1,1.92-1.92h35.52a3,3,0,0,1,2.64,1.68l49.2,129.36L7438.17,6977a2.81,2.81,0,0,1,2.64-1.92h33.12a2.06,2.06,0,0,1,1.92,1.92l-.72,82.8,1,81.36a2.06,2.06,0,0,1-1.92,1.92h-25.92a2.06,2.06,0,0,1-1.92-1.92l.24-71,.72-40.32.24-13.68-46.32,125a2.81,2.81,0,0,1-2.64,1.92h-19.44a3,3,0,0,1-2.64-1.68l-49.44-129.12.48,18Z" transform="translate(-6037.31 -6772.03)"/><path class="cls-2" d="M7555.53,7146.44c-43.2,0-65.28-23.76-65.28-66.24v-48.72l-.48-54.48a2.06,2.06,0,0,1,1.92-1.92h26.64a2.06,2.06,0,0,1,1.92,1.92l-.48,53.76V7080c0,26.16,10.56,42,35.76,42,26.4,0,37.44-15.84,37.44-42v-48.48l-.48-54.48a2.06,2.06,0,0,1,1.92-1.92h24a2.06,2.06,0,0,1,1.92,1.92l-.48,54.48v48.72C7619.85,7122.68,7598.49,7146.44,7555.53,7146.44Z" transform="translate(-6037.31 -6772.03)"/><path class="cls-2" d="M6927.69,7288.76c-25.08,0-40.44-17.28-40.44-43.55,0-26.64,15.72-43.8,40.44-43.8,17.4,0,32,7.56,36.36,29.76a.93.93,0,0,1-.84,1h-12.48a1.26,1.26,0,0,1-1.2-1c-2.4-11.88-10.44-17.88-22.08-17.88-16.08,0-25,12.24-25,31.92,0,20.39,9.24,31.67,24.84,31.67,12.84,0,20.64-7,22.56-19.8a1.14,1.14,0,0,1,1.08-.95h12.84a.92.92,0,0,1,.84.95C6960.81,7279.4,6947.25,7288.76,6927.69,7288.76Z" transform="translate(-6037.31 -6772.03)"/><path class="cls-2" d="M6999.21,7235c-7.08,0-13.8,5.64-15.84,16.2l.36,34.91a1,1,0,0,1-1,1h-12.48a1,1,0,0,1-1-1l.48-41.39-.48-40.68a1,1,0,0,1,1-1h12.48a1,1,0,0,1,1,1l-.24,29.52c4.08-5.88,10.56-9.72,19.44-9.72,13.44,0,21.72,8.16,21.48,26.15v12.84l.24,23.28a1,1,0,0,1-1,1h-12.84a1,1,0,0,1-1-1l.36-23-.12-14.63C7010.13,7239.09,7005.33,7235,6999.21,7235Z" transform="translate(-6037.31 -6772.03)"/><path class="cls-2" d="M7087.29,7266a.85.85,0,0,1,.84,1c-1.68,11.88-11.88,21.6-28.44,21.6-19.92,0-30.6-13.32-30.6-32.15,0-19.56,11.4-32.52,30.12-32.52,19.2,0,30,13,30.36,34.07a1,1,0,0,1-1,1h-45.12c.6,13.2,6,19.44,16.44,19.44,7.56,0,12.48-3.72,14.16-11.4a1.26,1.26,0,0,1,1.2-1Zm-28-32c-8.64,0-13.8,5.28-15.36,15.24h30C7073.37,7241.13,7068.81,7233.93,7059.33,7233.93Z" transform="translate(-6037.31 -6772.03)"/><path class="cls-2" d="M7109,7264l.36,22.08a1,1,0,0,1-1,1h-13.08a1,1,0,0,1-1-1l.36-22.08-.12-37.79a1,1,0,0,1,1-1h12.12a1,1,0,0,1,1,1l-.36,8c4.08-6.24,9.84-10.44,18.48-10.44s14.88,3.84,17.76,12.24c4.92-8.88,11-12.24,19.08-12.24,12.24,0,19.44,7.56,19.44,24.23v16l.36,22.08a1,1,0,0,1-1,1h-12.84a1,1,0,0,1-1-1l.24-22.08v-15.59c0-9.36-3.84-13.32-10-13.32-5.52,0-10.92,5.76-12.72,16.2V7264l.24,22.08a1,1,0,0,1-1,1h-12.84a1,1,0,0,1-1-1l.36-22.08v-15.59c0-9.36-3.84-13.32-10-13.32s-11.88,6.72-13.08,18.95Z" transform="translate(-6037.31 -6772.03)"/><path class="cls-2" d="M7190.73,7218.93a1,1,0,0,1-1-1v-12.36a1,1,0,0,1,1-1h12.72a1,1,0,0,1,1,1V7218a1,1,0,0,1-1,1Zm0,68.15a1,1,0,0,1-1-1l.24-30.36-.24-29.51a1,1,0,0,1,1-1h12.84a1,1,0,0,1,1,1l-.36,29.51.36,30.36a1,1,0,0,1-1,1Z" transform="translate(-6037.31 -6772.03)"/><path class="cls-2" d="M7212.45,7287.08a1,1,0,0,1-1-1l.36-28.08-.12-31.79a1,1,0,0,1,1-1h12.12a1,1,0,0,1,1,1l-.36,8a24.33,24.33,0,0,1,20.28-10.44c12.84,0,21.12,8.64,21.12,24.23v12.72l.24,25.32a1,1,0,0,1-1,1h-12.72a1,1,0,0,1-1-1l.24-25.32v-12.35c0-8.76-4.68-13.32-11.28-13.32-7.2,0-14,6.12-15.24,18.95v6.72l.24,25.32a1,1,0,0,1-1,1Z" transform="translate(-6037.31 -6772.03)"/><path class="cls-2" d="M7294.65,7259.6l.48,26.52a1,1,0,0,1-1,1H7281a1,1,0,0,1-1-1l.48-26.52v-23.51h-8.64a1,1,0,0,1-1-1v-8.88a1,1,0,0,1,1-1h8.64v-4.68c0-13.8,9.12-18.84,18.24-18.84a56.55,56.55,0,0,1,9.6,1,1.16,1.16,0,0,1,1,1.08v8.76a.77.77,0,0,1-1,.72,23.83,23.83,0,0,0-6.37-.72c-4.43,0-7.31,2.4-7.31,9.36v3.36h13.68a1,1,0,0,1,1,1v8.88a1,1,0,0,1-1,1h-13.68Z" transform="translate(-6037.31 -6772.03)"/><path class="cls-2" d="M7339,7288.52c-19.55,0-30.59-12.6-30.59-32.15s11-32.52,30.59-32.52,30.36,12.6,30.36,32.15S7358.48,7288.52,7339,7288.52Zm0-10.2c10.44,0,15.48-7.2,15.48-21.95s-5.15-22.32-15.59-22.32c-10.68.12-15.72,7.8-15.72,22.44S7328.49,7278.32,7339,7278.32Z" transform="translate(-6037.31 -6772.03)"/><path class="cls-2" d="M7375.29,7287.08a1,1,0,0,1-1-1l.36-30.24-.36-29.63a1,1,0,0,1,1-1h12.48a1,1,0,0,1,1,1l-.36,9.84c4.55-7.44,12.71-11.28,21.47-11.28a25.56,25.56,0,0,1,3.24.24,1.42,1.42,0,0,1,1,1.2v9.36a.93.93,0,0,1-1,.84,22.18,22.18,0,0,0-2.88-.12c-11.64,0-21,6.72-21.47,20.75l.12,29a1,1,0,0,1-1,1Z" transform="translate(-6037.31 -6772.03)"/><path class="cls-2" d="M7432.4,7264l.36,22.08a1,1,0,0,1-1,1h-13.07a1,1,0,0,1-1-1l.36-22.08-.13-37.79a1,1,0,0,1,1-1h12.12a1,1,0,0,1,1,1l-.36,8c4.08-6.24,9.84-10.44,18.48-10.44s14.88,3.84,17.76,12.24c4.92-8.88,11-12.24,19.08-12.24,12.24,0,19.44,7.56,19.44,24.23v16l.36,22.08a1,1,0,0,1-1,1H7493a1,1,0,0,1-1-1l.24-22.08v-15.59c0-9.36-3.84-13.32-10-13.32-5.52,0-10.92,5.76-12.72,16.2V7264l.24,22.08a1,1,0,0,1-1,1H7456a1,1,0,0,1-1-1l.36-22.08v-15.59c0-9.36-3.84-13.32-10-13.32s-11.88,6.72-13.08,18.95Z" transform="translate(-6037.31 -6772.03)"/><path class="cls-2" d="M7557,7287.08a1,1,0,0,1-1-1l.24-7.56c-4.2,6.12-10.68,9.72-19,9.72-17.16,0-26.16-13.92-26.16-31.91s9.84-32.28,26.4-32.28c8.16,0,14.52,3.12,18.72,9.12l-.36-7a1,1,0,0,1,1-1h12.72a1,1,0,0,1,1,1l-.36,29.75.36,30.12a1,1,0,0,1-1,1Zm-15.84-9c9.72,0,15.36-7.2,15.48-21.47s-5.4-22.2-15.12-22.32c-10.56-.12-15.72,7.92-15.72,21.12C7525.76,7269.8,7531,7278.08,7541.12,7278.08Z" transform="translate(-6037.31 -6772.03)"/><path class="cls-2" d="M7612,7285.16a1.17,1.17,0,0,1-1,1.2,34,34,0,0,1-10,1.8c-9.72,0-18.48-4.92-18.48-18.72l.12-33.35h-7.08a1,1,0,0,1-1-1v-8.88a1,1,0,0,1,1-1h7.08l-.12-14.52a1,1,0,0,1,1-1h12.6a1,1,0,0,1,1,1l-.12,14.52h14a1,1,0,0,1,1,1v8.88a1,1,0,0,1-1,1h-14v33c0,6.24,2.64,8.16,7.2,8.16a26,26,0,0,0,6.84-1,.77.77,0,0,1,1,.72Z" transform="translate(-6037.31 -6772.03)"/><path class="cls-2" d="M7617.8,7218.93a1,1,0,0,1-1-1v-12.36a1,1,0,0,1,1-1h12.72a1,1,0,0,1,1,1V7218a1,1,0,0,1-1,1Zm0,68.15a1,1,0,0,1-1-1l.24-30.36-.24-29.51a1,1,0,0,1,1-1h12.84a1,1,0,0,1,1,1l-.36,29.51.36,30.36a1,1,0,0,1-1,1Z" transform="translate(-6037.31 -6772.03)"/><path class="cls-2" d="M7667.24,7288.52c-19.2,0-30.24-12.6-30.24-32.15s11-32.52,30.48-32.52c15.6,0,25.44,8.88,26.76,22.2a.85.85,0,0,1-.84,1H7682a1.14,1.14,0,0,1-1.08-1c-1.44-7.92-6.6-11.88-13.44-11.88-10.68,0-15.72,7.68-15.72,22.08,0,14.87,5.16,21.95,15.72,22.07,7.8.12,13.2-4.92,13.92-13.8a1.14,1.14,0,0,1,1.08-1h11.76a.85.85,0,0,1,.84,1C7693.88,7278.44,7683.32,7288.52,7667.24,7288.52Z" transform="translate(-6037.31 -6772.03)"/><path class="cls-2" d="M7726.64,7288.52c-17.4,0-28.32-7.32-28.8-21.48a1,1,0,0,1,1-1h12.12a1,1,0,0,1,1,1c.36,8.16,5.64,11.88,15.36,11.88,8.16,0,13.08-3.24,13.08-9,0-13.67-41-1.56-41-27,0-12.48,10-19.08,25.68-19.08,15.36,0,26,6.36,27,19.32a1,1,0,0,1-1,1h-11.52a1.14,1.14,0,0,1-1.08-1c-1-6.36-5.52-10-13.68-10-7.08,0-11.64,2.64-11.64,8.64,0,13.32,41,.72,41,26.87C7754.12,7281.32,7742.36,7288.52,7726.64,7288.52Z" transform="translate(-6037.31 -6772.03)"/><path class="cls-1" d="M7782.08,7287.08a1,1,0,0,1-1-1l.48-41.63-.48-40.44a1,1,0,0,1,1-1H7836a1,1,0,0,1,1,1v9.6a1,1,0,0,1-1,1h-40l-.36,22.2h37.07a1,1,0,0,1,1,1v9.6a1,1,0,0,1-1,1h-37.07l.36,27.23h40.92a1,1,0,0,1,1,1v9.6a1,1,0,0,1-1,1Z" transform="translate(-6037.31 -6772.03)"/><path class="cls-1" d="M7844.36,7287.08a1,1,0,0,1-1-1l.48-41.27-.48-40.8a1,1,0,0,1,1-1h12.48a1,1,0,0,1,1,1l-.36,40.8.36,41.27a1,1,0,0,1-1,1Z" transform="translate(-6037.31 -6772.03)"/><path class="cls-1" d="M7892,7288.52c-17.39,0-28.31-7.32-28.79-21.48a1,1,0,0,1,1-1h12.12a1,1,0,0,1,1,1c.35,8.16,5.64,11.88,15.35,11.88,8.16,0,13.08-3.24,13.08-9,0-13.67-41-1.56-41-27,0-12.48,10-19.08,25.67-19.08,15.36,0,26,6.36,27,19.32a1,1,0,0,1-1,1h-11.52a1.14,1.14,0,0,1-1.08-1c-1-6.36-5.52-10-13.68-10-7.07,0-11.63,2.64-11.63,8.64,0,13.32,41,.72,41,26.87C7919.47,7281.32,7907.71,7288.52,7892,7288.52Z" transform="translate(-6037.31 -6772.03)"/><path class="cls-1" d="M7980.91,7266a.85.85,0,0,1,.84,1c-1.68,11.88-11.88,21.6-28.44,21.6-19.92,0-30.6-13.32-30.6-32.15,0-19.56,11.4-32.52,30.12-32.52,19.2,0,30,13,30.36,34.07a1,1,0,0,1-1,1h-45.12c.6,13.2,6,19.44,16.44,19.44,7.56,0,12.48-3.72,14.16-11.4a1.26,1.26,0,0,1,1.2-1Zm-28-32c-8.64,0-13.8,5.28-15.36,15.24h30C7967,7241.13,7962.43,7233.93,7953,7233.93Z" transform="translate(-6037.31 -6772.03)"/><path class="cls-1" d="M8019.91,7286.24a1.4,1.4,0,0,1-1.32,1h-15.24a1.4,1.4,0,0,1-1.32-1l-21.48-60a.66.66,0,0,1,.6-1h13.68a1.17,1.17,0,0,1,1.2,1l15.36,48.59,16.32-48.59a1.4,1.4,0,0,1,1.32-1h11.76a.66.66,0,0,1,.6,1Z" transform="translate(-6037.31 -6772.03)"/><path class="cls-1" d="M8045.23,7218.93a1,1,0,0,1-1-1v-12.36a1,1,0,0,1,1-1H8058a1,1,0,0,1,1,1V7218a1,1,0,0,1-1,1Zm0,68.15a1,1,0,0,1-1-1l.24-30.36-.24-29.51a1,1,0,0,1,1-1h12.84a1,1,0,0,1,1,1l-.36,29.51.36,30.36a1,1,0,0,1-1,1Z" transform="translate(-6037.31 -6772.03)"/><path class="cls-1" d="M8122.63,7266a.85.85,0,0,1,.84,1c-1.68,11.88-11.88,21.6-28.44,21.6-19.92,0-30.6-13.32-30.6-32.15,0-19.56,11.4-32.52,30.12-32.52,19.2,0,30,13,30.36,34.07a1,1,0,0,1-1,1h-45.12c.6,13.2,6,19.44,16.44,19.44,7.56,0,12.48-3.72,14.16-11.4a1.26,1.26,0,0,1,1.2-1Zm-28-32c-8.64,0-13.8,5.28-15.36,15.24h30C8108.71,7241.13,8104.15,7233.93,8094.67,7233.93Z" transform="translate(-6037.31 -6772.03)"/><path class="cls-1" d="M8130.67,7287.08a1,1,0,0,1-1-1l.36-30.24-.36-29.63a1,1,0,0,1,1-1h12.48a1,1,0,0,1,1,1l-.36,9.84c4.56-7.44,12.72-11.28,21.48-11.28a25.56,25.56,0,0,1,3.24.24,1.42,1.42,0,0,1,1,1.2v9.36a.93.93,0,0,1-1,.84,22.18,22.18,0,0,0-2.88-.12c-11.64,0-21,6.72-21.48,20.75l.12,29a1,1,0,0,1-1,1Z" transform="translate(-6037.31 -6772.03)"/><path class="cls-2" d="M6902.61,7394.61l.12,35.51a1,1,0,0,1-1,1h-11.52a1,1,0,0,1-1-1l.36-40.67-.36-41.4a1,1,0,0,1,1-1H6908a1.48,1.48,0,0,1,1.32.84l24.6,64.67,23.64-64.55a1.4,1.4,0,0,1,1.32-1h16.56a1,1,0,0,1,1,1l-.36,41.4.48,40.67a1,1,0,0,1-1,1h-13a1,1,0,0,1-1-1l.12-35.51.36-20.16.12-6.84-23.16,62.51a1.4,1.4,0,0,1-1.32,1h-9.72a1.48,1.48,0,0,1-1.32-.84L6902,7365.69l.24,9Z" transform="translate(-6037.31 -6772.03)"/><path class="cls-2" d="M7040.13,7410a.85.85,0,0,1,.84,1c-1.68,11.88-11.88,21.6-28.44,21.6-19.92,0-30.6-13.32-30.6-32.15,0-19.56,11.4-32.52,30.12-32.52,19.2,0,30,13,30.36,34.07a1,1,0,0,1-1,1h-45.12c.6,13.2,6,19.44,16.44,19.44,7.56,0,12.48-3.72,14.16-11.4a1.28,1.28,0,0,1,1.2-1Zm-28-32c-8.64,0-13.8,5.28-15.36,15.24h30C7026.21,7385.13,7021.65,7377.93,7012.17,7377.93Z" transform="translate(-6037.31 -6772.03)"/><path class="cls-2" d="M7048.77,7431.08a1,1,0,0,1-1-1l.48-41.27-.48-40.8a1,1,0,0,1,1-1h12.48a1,1,0,0,1,1,1l-.36,40.8.36,41.27a1,1,0,0,1-1,1Z" transform="translate(-6037.31 -6772.03)"/><path class="cls-2" d="M7102.29,7432.28c-8.16,0-14.52-3.12-18.72-9.12l.36,7a1,1,0,0,1-1,1h-12.72a1,1,0,0,1-1-1l.36-42.83-.36-39.24a1,1,0,0,1,1-1H7083a1,1,0,0,1,1,1l-.12,29.28c4.32-5.88,10.56-9.24,18.72-9.24,17.16,0,26.16,13.92,26.16,31.91S7118.85,7432.28,7102.29,7432.28Zm-4-10.44c10.56.24,15.6-8,15.6-21.11,0-14-5.16-22.32-15.24-22.2-9.72,0-15.36,7.08-15.48,21C7083.09,7413.8,7088.61,7421.72,7098.33,7421.84Z" transform="translate(-6037.31 -6772.03)"/><path class="cls-2" d="M7162.65,7432.52c-19.56,0-30.6-12.6-30.6-32.15s11-32.52,30.6-32.52S7193,7380.45,7193,7400,7182.09,7432.52,7162.65,7432.52Zm0-10.2c10.44,0,15.48-7.19,15.48-21.95s-5.16-22.32-15.6-22.32c-10.68.12-15.72,7.8-15.72,22.44S7152.09,7422.32,7162.65,7422.32Z" transform="translate(-6037.31 -6772.03)"/><path class="cls-2" d="M7218.81,7432.52c-13,0-21.12-8.64-21.12-24.23v-12.72l-.24-25.32a1,1,0,0,1,1-1h12.72a1,1,0,0,1,1,1l-.24,25.32v12.35c0,8.76,4.68,13.32,11.16,13.32,7.32,0,14-6.11,15.24-18.95v-6.72l-.12-25.32a1,1,0,0,1,1-1h12.84a1,1,0,0,1,1,1l-.24,28.08.12,31.79a1,1,0,0,1-1,1h-12.12a1,1,0,0,1-1-1l.36-8A24.49,24.49,0,0,1,7218.81,7432.52Z" transform="translate(-6037.31 -6772.03)"/><path class="cls-2" d="M7260.45,7431.08a1,1,0,0,1-1-1l.36-30.23-.36-29.64a1,1,0,0,1,1-1h12.48a1,1,0,0,1,1,1l-.36,9.84c4.56-7.44,12.72-11.28,21.48-11.28a25.56,25.56,0,0,1,3.24.24,1.42,1.42,0,0,1,1,1.2v9.36a.93.93,0,0,1-1,.84,22.18,22.18,0,0,0-2.88-.12c-11.64,0-21,6.72-21.48,20.75l.12,29a1,1,0,0,1-1,1Z" transform="translate(-6037.31 -6772.03)"/><path class="cls-2" d="M7303.89,7431.08a1,1,0,0,1-1-1l.36-28.08-.12-31.79a1,1,0,0,1,1-1h12.12a1,1,0,0,1,1,1l-.36,8a24.33,24.33,0,0,1,20.28-10.44c12.84,0,21.12,8.64,21.12,24.24v12.71l.24,25.32a1,1,0,0,1-1,1h-12.72a1,1,0,0,1-1-1l.24-25.32v-12.35c0-8.76-4.68-13.32-11.28-13.32-7.2,0-14,6.12-15.24,18.95v6.72l.24,25.32a1,1,0,0,1-1,1Z" transform="translate(-6037.31 -6772.03)"/><path class="cls-2" d="M7421.12,7410a.85.85,0,0,1,.84,1c-1.68,11.88-11.88,21.6-28.44,21.6-19.91,0-30.59-13.32-30.59-32.15,0-19.56,11.4-32.52,30.11-32.52,19.2,0,30,13,30.36,34.07a1,1,0,0,1-1,1h-45.11c.6,13.2,6,19.44,16.43,19.44,7.56,0,12.48-3.72,14.16-11.4a1.28,1.28,0,0,1,1.2-1Zm-27.95-32c-8.64,0-13.8,5.28-15.36,15.24h30C7407.2,7385.13,7402.64,7377.93,7393.17,7377.93Z" transform="translate(-6037.31 -6772.03)"/><path class="cls-2" d="M7481.48,7432.76c-21.59,0-32.63-11.88-32.63-33.11v-24.36l-.24-27.24a1,1,0,0,1,1-1h13.32a1,1,0,0,1,1,1l-.24,26.88v24.6c0,13.07,5.28,21,17.87,21,13.2,0,18.72-7.92,18.72-21v-24.24l-.24-27.24a1,1,0,0,1,1-1h12a1,1,0,0,1,1,1l-.24,27.24v24.36C7513.64,7420.88,7503,7432.76,7481.48,7432.76Z" transform="translate(-6037.31 -6772.03)"/><path class="cls-2" d="M7521.21,7431.08a1,1,0,0,1-1-1l.36-28.08-.12-31.79a1,1,0,0,1,1-1h12.12a1,1,0,0,1,1,1l-.36,8a24.32,24.32,0,0,1,20.27-10.44c12.84,0,21.12,8.64,21.12,24.24v12.71l.24,25.32a1,1,0,0,1-1,1h-12.72a1,1,0,0,1-1-1l.24-25.32v-12.35c0-8.76-4.68-13.32-11.27-13.32-7.21,0-14.05,6.12-15.25,18.95v6.72l.25,25.32a1,1,0,0,1-1,1Z" transform="translate(-6037.31 -6772.03)"/><path class="cls-2" d="M7583.24,7362.93a1,1,0,0,1-1-1v-12.36a1,1,0,0,1,1-1H7596a1,1,0,0,1,1,1V7362a1,1,0,0,1-1,1Zm0,68.15a1,1,0,0,1-1-1l.24-30.35-.24-29.52a1,1,0,0,1,1-1h12.84a1,1,0,0,1,1,1l-.36,29.52.36,30.35a1,1,0,0,1-1,1Z" transform="translate(-6037.31 -6772.03)"/><path class="cls-2" d="M7639.28,7430.24a1.4,1.4,0,0,1-1.32,1h-15.24a1.4,1.4,0,0,1-1.32-1l-21.48-60a.66.66,0,0,1,.6-1h13.68a1.17,1.17,0,0,1,1.2,1l15.36,48.59,16.32-48.59a1.4,1.4,0,0,1,1.32-1h11.76a.66.66,0,0,1,.6,1Z" transform="translate(-6037.31 -6772.03)"/><path class="cls-2" d="M7716.44,7410a.85.85,0,0,1,.84,1c-1.68,11.88-11.88,21.6-28.44,21.6-19.92,0-30.6-13.32-30.6-32.15,0-19.56,11.4-32.52,30.12-32.52,19.2,0,30,13,30.36,34.07a1,1,0,0,1-1,1h-45.12c.6,13.2,6,19.44,16.44,19.44,7.56,0,12.48-3.72,14.16-11.4a1.28,1.28,0,0,1,1.2-1Zm-28-32c-8.64,0-13.8,5.28-15.36,15.24h30C7702.52,7385.13,7698,7377.93,7688.48,7377.93Z" transform="translate(-6037.31 -6772.03)"/><path class="cls-2" d="M7724.48,7431.08a1,1,0,0,1-1-1l.36-30.23-.36-29.64a1,1,0,0,1,1-1H7737a1,1,0,0,1,1,1l-.36,9.84c4.56-7.44,12.72-11.28,21.48-11.28a25.56,25.56,0,0,1,3.24.24,1.42,1.42,0,0,1,1,1.2v9.36a.93.93,0,0,1-1,.84,22.18,22.18,0,0,0-2.88-.12c-11.64,0-21,6.72-21.48,20.75l.12,29a1,1,0,0,1-1,1Z" transform="translate(-6037.31 -6772.03)"/><path class="cls-2" d="M7792.28,7432.52c-17.4,0-28.32-7.32-28.8-21.48a1,1,0,0,1,1-1h12.12a1,1,0,0,1,1,1c.36,8.16,5.64,11.88,15.36,11.88,8.16,0,13.08-3.24,13.08-9,0-13.67-41-1.56-41-27,0-12.48,10-19.08,25.68-19.08,15.36,0,26,6.36,27,19.32a1,1,0,0,1-1,1h-11.52a1.14,1.14,0,0,1-1.08-1c-1-6.36-5.52-10-13.68-10-7.08,0-11.64,2.64-11.64,8.64,0,13.32,41,.72,41,26.87C7819.76,7425.32,7808,7432.52,7792.28,7432.52Z" transform="translate(-6037.31 -6772.03)"/><path class="cls-2" d="M7826,7362.93a1,1,0,0,1-1-1v-12.36a1,1,0,0,1,1-1h12.72a1,1,0,0,1,1,1V7362a1,1,0,0,1-1,1Zm0,68.15a1,1,0,0,1-1-1l.24-30.35-.24-29.52a1,1,0,0,1,1-1h12.84a1,1,0,0,1,1,1l-.36,29.52.36,30.35a1,1,0,0,1-1,1Z" transform="translate(-6037.31 -6772.03)"/><path class="cls-2" d="M7881.8,7429.16a1.17,1.17,0,0,1-1,1.2,34,34,0,0,1-10,1.8c-9.72,0-18.48-4.92-18.48-18.72l.12-33.35h-7.08a1,1,0,0,1-1-1v-8.88a1,1,0,0,1,1-1h7.08l-.12-14.52a1,1,0,0,1,1-1H7866a1,1,0,0,1,1,1l-.12,14.52h14a1,1,0,0,1,1,1v8.88a1,1,0,0,1-1,1h-14v33c0,6.24,2.64,8.16,7.2,8.16a26,26,0,0,0,6.84-1,.77.77,0,0,1,1,.72Z" transform="translate(-6037.31 -6772.03)"/><path class="cls-2" d="M7915.4,7450.52a1.4,1.4,0,0,1-1.32,1h-11.76a.66.66,0,0,1-.6-1l6.48-19.08-24.48-61.31a.64.64,0,0,1,.6-.84h14.28a1.4,1.4,0,0,1,1.32,1l15.48,42.59,13.08-42.59a1.17,1.17,0,0,1,1.2-1h12.84a.66.66,0,0,1,.6,1Z" transform="translate(-6037.31 -6772.03)"/></svg>